{"title":"Maigret - Maigret in pensione - s4e3 - 1972","uid":10617115,"size":1427354202,"categoryP":"video","categoryS":"tv_shows","magnet":"?xt=urn:btih:2110085d68aeaf5cccb66254b2cfa26383948598&amp;dn=Maigret+-+Maigret+in+pensione+-+s4e3+-+1972&amp;tr=udp%3A%2F%2Ftracker.openbittorrent.com%3A80&amp;tr=udp%3A%2F%2Fopen.demonii.com%3A1337&amp;tr=udp%3A%2F%2Ftracker.coppersurfer.tk%3A6969&amp;tr=udp%3A%2F%2Fexodus.desync.com%3A6969","seeders":1,"leechers":0,"uploader":"ziopino","files":-1,"time":1406135075,"description":"Format                                   : MPEG-4\nFormat profile                           : Base Media / Version 2\nCodec ID                                 : mp42\nFile size                                : 1.33 GiB\nDuration                                 : 2h 19mn\nOverall bit rate mode                    : Variable\nOverall bit rate                         : 1 361 Kbps\nEncoded date                             : UTC 2013-03-18 18:01:08\nTagged date                              : UTC 2013-03-18 19:18:07\nWriting application                      : HandBrake 0.9.8 2012071700\n\nVideo\nID                                       : 1\nFormat                                   : AVC\nFormat/Info                              : Advanced Video Codec\nFormat profile                           : &lt;a class=&quot;__cf_email__&quot; href=&quot;/cdn-cgi/l/email-protection&quot; data-cfemail=&quot;eca18d8582aca0dfc2dc&quot;&gt;[email&amp;#160;protected]&lt;/a&gt;&lt;script cf-hash='f9e31' type=&quot;text/javascript&quot;&gt;\n/* &lt;![CDATA[ */!function(){try{var t=&quot;currentScript&quot;in document?document.currentScript:function(){for(var t=document.getElementsByTagName(&quot;script&quot;),e=t.length;e--;)if(t[e].getAttribute(&quot;cf-hash&quot;))return t[e]}();if(t&amp;&amp;t.previousSibling){var e,r,n,i,c=t.previousSibling,a=c.getAttribute(&quot;data-cfemail&quot;);if(a){for(e=&quot;&quot;,r=parseInt(a.substr(0,2),16),n=2;a.length-n;n+=2)i=parseInt(a.substr(n,2),16)^r,e+=String.fromCharCode(i);e=document.createTextNode(e),c.parentNode.replaceChild(e,c)}}}catch(u){}}();/* ]]&gt; */&lt;/script&gt;\nFormat settings, CABAC                   : Yes\nFormat settings, ReFrames                : 4 frames\nCodec ID                                 : avc1\nCodec ID/Info                            : Advanced Video Coding\nDuration                                 : 2h 19mn\nBit rate                                 : 1 200 Kbps\nWidth                                    : 720 pixels\nHeight                                   : 576 pixels\nDisplay aspect ratio                     : 5:4\nFrame rate mode                          : Constant\nFrame rate                               : 25.000 fps\nStandard                                 : PAL\nColor space                              : YUV\nChroma subsampling                       : 4:2:0\nBit depth                                : 8 bits\nScan type                                : Progressive\nBits/(Pixel*Frame)                       : 0.116\nStream size                              : 1.17 GiB (88%)\nWriting library                          : x264 core 120\nEncoded date                             : UTC 2013-03-18 18:01:08\nTagged date                              : UTC 2013-03-18 19:18:07\nColor primaries                          : BT.601 NTSC\nTransfer characteristics                 : BT.709\nMatrix coefficients                      : BT.601\n\nAudio\nID                                       : 2\nFormat                                   : AAC\nFormat/Info                              : Advanced Audio Codec\nFormat profile                           : LC\nCodec ID                                 : 40\nDuration                                 : 2h 19mn\nBit rate mode                            : Variable\nBit rate                                 : 157 Kbps\nMaximum bit rate                         : 203 Kbps\nChannel(s)                               : 1 channel\nChannel positions                        : Front: C\nSampling rate                            : 48.0 KHz\nCompression mode                         : Lossy\nStream size                              : 157 MiB (12%)\nEncoded date                             : UTC 2013-03-18 18:01:08\nTagged date                              : UTC 2013-03-18 19:18:07\n\n","torrent":{"xt":"urn:btih:2110085d68aeaf5cccb66254b2cfa26383948598","amp;dn":"Maigret+-+Maigret+in+pensione+-+s4e3+-+1972","amp;tr":["udp%3A%2F%2Ftracker.openbittorrent.com%3A80","udp%3A%2F%2Fopen.demonii.com%3A1337","udp%3A%2F%2Ftracker.coppersurfer.tk%3A6969","udp%3A%2F%2Fexodus.desync.com%3A6969"],"infoHash":"2110085d68aeaf5cccb66254b2cfa26383948598","infoHashBuffer":{"type":"Buffer","data":[33,16,8,93,104,174,175,92,204,182,98,84,178,207,162,99,131,148,133,152]},"announce":[],"urlList":[]}}